<?xml version="1.0" encoding="UTF-8"?>
<!--Generator: Apple Native CoreSVG 175.5-->
<!DOCTYPE svg
PUBLIC "-//W3C//DTD SVG 1.1//EN"
       "http://www.w3.org/Graphics/SVG/1.1/DTD/svg11.dtd">
<svg version="1.1" xmlns="http://www.w3.org/2000/svg" xmlns:xlink="http://www.w3.org/1999/xlink" width="19.9846" height="19.1216">
 <g>
  <rect height="19.1216" opacity="0" width="19.9846" x="0" y="0"/>
  <path d="M0 6.82331C0 11.0052 3.51117 15.1467 8.93514 18.6623C9.29238 18.8917 9.70646 19.1216 9.99228 19.1216C10.275 19.1216 10.6922 18.8917 11.0561 18.6623C16.4734 15.1467 19.9846 11.0052 19.9846 6.82331C19.9846 3.12717 17.4221 0.595703 14.2052 0.595703C12.3116 0.595703 10.8623 1.44576 9.99228 2.70822C9.13556 1.45242 7.66982 0.595703 5.77933 0.595703C2.56248 0.595703 0 3.12717 0 6.82331ZM2.26788 6.80779C2.26788 4.4213 3.85751 2.80768 5.98028 2.80768C7.6889 2.80768 8.638 3.81983 9.24127 4.71876C9.51425 5.1156 9.71753 5.25718 9.99228 5.25718C10.267 5.25718 10.4477 5.10583 10.7371 4.71876C11.3892 3.83005 12.3023 2.80768 14.0043 2.80768C16.1271 2.80768 17.7136 4.4213 17.7136 6.80779C17.7136 10.1301 14.2918 13.8722 10.1663 16.6181C10.0873 16.674 10.0313 16.7135 9.99228 16.7135C9.95322 16.7135 9.89728 16.674 9.82491 16.6181C5.68964 13.8722 2.26788 10.1301 2.26788 6.80779Z" fill="#000000"/>
 </g>
</svg>
